# Blender v2.74 (sub 0) OBJ File: 'project1.blend'
# www.blender.org
mtllib lueftungsrechteck.mtl
o Cube.002_Cube.001
v 0.457109 -2.963370 -1.737018
v 0.457109 -2.275412 -1.737018
v 0.457109 -2.963370 -3.778879
v 0.457109 -2.275412 -3.778879
v 4.584861 -2.963370 -1.737018
v 4.584861 -2.275412 -1.737018
v 4.584861 -2.963370 -3.778879
v 4.584861 -2.275412 -3.778879
v 0.695017 -2.223075 -1.854703
v 0.695017 -2.223075 -3.661194
v 4.346953 -2.223075 -3.661194
v 4.346953 -2.223075 -1.854703
vt 0.345719 0.474764
vt 0.691439 0.474764
vt 0.691439 0.886831
vt 0.345720 0.886831
vt 0.724436 0.412067
vt 0.724436 0.000000
vt 1.000000 0.000000
vt 1.000000 0.412067
vt 0.345719 0.031348
vt 0.691439 0.031348
vt 0.691439 0.443416
vt 0.345720 0.443416
vt 0.000000 0.259484
vt 0.345719 0.259484
vt 0.345719 0.587933
vt 0.000000 0.587933
vt 0.345719 1.000000
vt 0.000000 1.000000
vt 0.019926 0.220155
vt 0.325794 0.220155
vt 0.019926 0.000000
vt 0.325794 0.000000
vt 0.365645 0.000000
vt 0.671513 0.000000
vt 0.691439 0.388317
vt 0.691439 0.023750
vt 0.365645 0.443416
vt 0.671513 0.443416
vn -1.000000 0.000000 0.000000
vn 0.000000 0.000000 -1.000000
vn 1.000000 0.000000 0.000000
vn 0.000000 0.000000 1.000000
vn 0.000000 -1.000000 0.000000
vn 0.000000 0.913700 0.406300
vn 0.000000 1.000000 0.000000
vn 0.214800 0.976600 0.000000
vn 0.000000 0.913700 -0.406300
vn -0.214800 0.976600 0.000000
usemtl lueftunsrechteck
s off
f 2/1/1 4/2/1 3/3/1 1/4/1
f 4/5/2 8/6/2 7/7/2 3/8/2
f 8/9/3 6/10/3 5/11/3 7/12/3
f 6/13/4 2/14/4 1/15/4 5/16/4
f 1/15/5 3/17/5 7/18/5 5/16/5
f 2/14/6 6/13/6 12/19/6 9/20/6
f 12/19/7 11/21/7 10/22/7 9/20/7
f 6/10/8 8/9/8 11/23/8 12/24/8
f 8/6/9 4/5/9 10/25/9 11/26/9
f 4/2/10 2/1/10 9/27/10 10/28/10
