# Blender v2.74 (sub 0) OBJ File: ''
# www.blender.org
mtllib skyscraper1.mtl
o Cube_Cube.003
v -5.000000 2.316165 -3.491385
v -5.000000 -12.000001 3.491386
v -5.000000 2.316164 3.491387
v 5.000000 2.316165 -3.491385
v -5.000000 -11.999998 -3.491387
v 5.000000 2.316164 3.491387
v 5.000000 -11.999998 -3.491387
v 5.000000 -12.000001 3.491386
v -4.733688 2.316164 3.297474
v 4.733688 2.316164 3.297474
v -4.733688 2.014448 3.297473
v 4.733688 2.316165 -3.297473
v -4.733688 2.316165 -3.297473
v 4.733688 2.014451 -3.297474
v 4.733688 2.014448 3.297473
v -4.733688 2.014451 -3.297474
vt 0.308100 0.393000
vt 0.000000 0.786000
vt 0.000000 0.393000
vt 0.616100 0.000000
vt 0.308100 0.000000
vt 0.000000 0.000000
vt 0.616100 0.393000
vt 0.308100 0.786000
vt 0.924200 0.678700
vt 0.616100 0.339400
vt 0.924200 0.339400
vt 0.624700 0.330300
vt 0.924200 0.000000
vt 0.970600 0.321300
vt 0.924200 0.321300
vt 0.624700 0.009000
vt 0.915600 0.009000
vt 0.915600 0.330300
vt 0.907100 0.678700
vt 0.616100 1.000000
vt 0.616100 0.678700
vt 0.953500 0.678700
vt 1.000000 0.999200
vt 0.953500 0.999200
vt 0.953500 1.000000
vt 0.970600 0.641800
vt 0.924200 0.641800
vt 0.616100 0.786000
vt 0.970600 0.000000
vt 0.907100 1.000000
vt 1.000000 0.678700
vn -1.000000 -0.000000 0.000000
vn 0.000000 0.000000 -1.000000
vn 1.000000 0.000000 0.000000
vn 0.000000 -0.000000 1.000000
vn 0.000000 -1.000000 -0.000000
vn -0.000000 1.000000 0.000000
usemtl None.003
s 1
f 1/1/1 2/2/1 3/3/1
f 4/4/2 5/1/2 1/5/2
f 6/5/3 7/3/3 4/6/3
f 3/7/4 8/8/4 6/1/4
f 5/9/5 8/10/5 2/11/5
f 6/4/6 9/12/6 3/10/6
f 10/13/2 11/14/2 9/15/2
f 4/13/6 10/16/6 6/4/6
f 1/11/6 12/17/6 4/13/6
f 1/11/6 9/12/6 13/18/6
f 14/19/6 11/20/6 15/21/6
f 12/22/1 15/23/1 10/24/1
f 13/25/4 14/19/4 12/22/4
f 9/15/3 16/26/3 13/27/3
f 1/1/1 5/8/1 2/2/1
f 4/4/2 7/7/2 5/1/2
f 6/5/3 8/1/3 7/3/3
f 3/7/4 2/28/4 8/8/4
f 5/9/5 7/21/5 8/10/5
f 6/4/6 10/16/6 9/12/6
f 10/13/2 15/29/2 11/14/2
f 4/13/6 12/17/6 10/16/6
f 1/11/6 13/18/6 12/17/6
f 1/11/6 3/10/6 9/12/6
f 14/19/6 16/30/6 11/20/6
f 12/22/1 14/31/1 15/23/1
f 13/25/4 16/30/4 14/19/4
f 9/15/3 11/14/3 16/26/3
