# Blender v2.78 (sub 0) OBJ File: 'skyscraper1.obj'
# www.blender.org
mtllib skyscraper2.mtl
o Cube_Cube.003
v -5.000000 -0.486756 0.076261
v -5.000000 6.496017 0.076263
v -5.000000 6.496017 -2.239901
v -5.000000 -0.486756 -2.239903
v 5.000000 6.496017 0.076263
v 5.000000 6.496017 -2.239901
v 5.000000 -0.486756 0.076261
v 5.000000 -0.486756 -2.239903
v 4.733688 -0.292843 0.076261
v -4.733688 -0.292843 0.076261
v 4.733688 -0.292843 -0.225454
v -4.733688 -0.292843 -0.225454
v 4.733688 6.302104 0.076263
v -4.733688 6.302104 0.076263
v 4.733688 6.302104 -0.225452
v -4.733688 6.302104 -0.225452
vt 0.0000 0.3930
vt 0.3081 0.3930
vt 0.3081 0.7860
vt 0.0000 0.7860
vt 0.3081 0.0000
vt 0.6161 0.0000
vt 0.6161 0.3930
vt 0.3081 0.3930
vt 0.0000 0.0000
vt 0.3081 0.0000
vt 0.3081 0.3930
vt 0.0000 0.3930
vt 0.3081 0.3930
vt 0.6161 0.3930
vt 0.6161 0.7860
vt 0.3081 0.7860
vt 0.9242 0.3394
vt 0.9242 0.6787
vt 0.6161 0.6787
vt 0.6161 0.3394
vt 0.6161 0.3394
vt 0.6161 0.0000
vt 0.6247 0.0090
vt 0.6247 0.3303
vt 0.9242 0.3213
vt 0.9242 0.0000
vt 0.9706 0.0000
vt 0.9706 0.3213
vt 0.9242 0.0000
vt 0.9156 0.0090
vt 0.9242 0.3394
vt 0.9156 0.3303
vt 0.6161 0.6787
vt 0.9071 0.6787
vt 0.9071 1.0000
vt 0.6161 1.0000
vt 0.9535 0.9992
vt 0.9535 0.6787
vt 1.0000 0.6787
vt 1.0000 0.9992
vt 0.9535 1.0000
vt 0.9242 0.6418
vt 0.9706 0.6418
vn -1.0000 0.0000 0.0000
vn 0.0000 1.0000 0.0000
vn 1.0000 0.0000 0.0000
vn 0.0000 -1.0000 -0.0000
vn 0.0000 0.0000 -1.0000
vn -0.0000 -0.0000 1.0000
usemtl None
s 1
f 1/1/1 2/2/1 3/3/1 4/4/1
f 2/5/2 5/6/2 6/7/2 3/8/2
f 5/9/3 7/10/3 8/11/3 6/12/3
f 7/13/4 1/14/4 4/15/4 8/16/4
f 4/17/5 3/18/5 6/19/5 8/20/5
f 1/21/6 7/22/6 9/23/6 10/24/6
f 10/25/2 9/26/2 11/27/2 12/28/2
f 7/22/6 5/29/6 13/30/6 9/23/6
f 5/29/6 2/31/6 14/32/6 13/30/6
f 2/31/6 1/21/6 10/24/6 14/32/6
f 11/33/6 15/34/6 16/35/6 12/36/6
f 9/37/1 13/38/1 15/39/1 11/40/1
f 13/38/4 14/41/4 16/35/4 15/34/4
f 14/42/3 10/25/3 12/28/3 16/43/3
