# Blender v2.74 (sub 0) OBJ File: 'project1.blend'
# www.blender.org
mtllib skyscraper1.mtl
o Cube_Cube.003
v -5.000000 -5.000000 0.491387
v -5.000000 -2.683836 0.491387
v -5.000000 -5.000000 -6.491386
v -5.000000 -2.683836 -6.491386
v 5.000000 -5.000000 0.491387
v 5.000000 -2.683836 0.491387
v 5.000000 -5.000000 -6.491386
v 5.000000 -2.683836 -6.491386
v -4.733688 -2.683836 0.297474
v -4.733688 -2.683836 -6.297474
v 4.733688 -2.683836 -6.297474
v 4.733688 -2.683836 0.297474
v -4.733688 -2.985551 0.297474
v -4.733688 -2.985551 -6.297474
v 4.733688 -2.985551 -6.297474
v 4.733688 -2.985551 0.297474
vt 0.000000 0.393005
vt 0.308055 0.393005
vt 0.308055 0.786010
vt 0.000000 0.786010
vt 0.308055 0.000000
vt 0.616110 0.000000
vt 0.616110 0.393005
vt 0.000000 0.000000
vt 0.616110 0.786010
vt 0.924165 0.339358
vt 0.924165 0.678717
vt 0.616110 0.678717
vt 0.616110 0.339358
vt 0.624665 0.009038
vt 0.624665 0.330321
vt 0.924165 0.321283
vt 0.924165 0.000000
vt 0.970637 0.000000
vt 0.970637 0.321283
vt 0.915610 0.009038
vt 0.915610 0.330321
vt 0.907055 0.678717
vt 0.907055 1.000000
vt 0.616110 1.000000
vt 0.953528 0.999227
vt 0.953528 0.678717
vt 1.000000 0.678717
vt 1.000000 0.999227
vt 0.953528 1.000000
vt 0.924165 0.641794
vt 0.970637 0.641794
vn -1.000000 0.000000 0.000000
vn 0.000000 0.000000 -1.000000
vn 1.000000 0.000000 0.000000
vn 0.000000 0.000000 1.000000
vn 0.000000 -1.000000 0.000000
vn 0.000000 1.000000 -0.000000
usemtl None
s off
f 2/1/1 4/2/1 3/3/1 1/4/1
f 4/5/2 8/6/2 7/7/2 3/2/2
f 8/8/3 6/5/3 5/2/3 7/1/3
f 6/2/4 2/7/4 1/9/4 5/3/4
f 1/10/5 3/11/5 7/12/5 5/13/5
f 2/13/6 6/6/6 12/14/6 9/15/6
f 9/16/2 12/17/2 16/18/2 13/19/2
f 6/6/6 8/17/6 11/20/6 12/14/6
f 8/17/6 4/10/6 10/21/6 11/20/6
f 4/10/6 2/13/6 9/15/6 10/21/6
f 16/12/6 15/22/6 14/23/6 13/24/6
f 12/25/1 11/26/1 15/27/1 16/28/1
f 11/26/4 10/29/4 14/23/4 15/22/4
f 10/30/3 9/16/3 13/19/3 14/31/3
