# Blender v2.77 (sub 0) OBJ File: ''
# www.blender.org
mtllib slimey.mtl
o Sphere
v -0.710756 1.388368 -0.070000
v -0.795506 1.191922 -0.243257
v -0.832511 1.182910 0.072455
v -0.424763 0.031241 -0.173955
v -0.926110 0.867018 -0.272625
v -0.968775 0.837921 -0.000001
v -0.093712 -0.013005 -0.076908
v -0.998039 0.465003 -0.082765
v -0.127674 1.710201 0.020402
v -0.928802 0.328548 -0.262937
v -0.385082 1.645954 -0.007065
v -0.921127 0.273737 0.107059
v -0.554397 1.552381 0.048426
v -0.516766 1.552091 -0.214067
v -0.826492 0.182196 -0.169627
v -0.665324 0.115068 -0.275591
v -0.620980 1.401159 -0.331928
v -0.884858 0.645593 -0.473724
v -0.295854 1.645283 -0.254623
v -0.824386 0.276361 -0.427525
v -0.769184 0.546315 -0.644548
v -0.053315 1.697086 -0.197315
v -0.762640 0.395473 -0.623527
v -0.551570 0.155886 -0.590425
v -0.732750 1.080278 -0.498512
v -0.400303 1.387606 -0.599159
v -0.557455 1.084072 -0.690445
v -0.231546 0.034890 -0.409675
v -0.618387 0.775533 -0.765447
v -0.600773 0.273738 -0.706407
v -0.356602 1.550355 -0.431030
v -0.500172 0.472355 -0.868950
v -0.348217 1.060402 -0.822479
v -0.252209 0.828163 -0.940607
v -0.254828 0.431991 -0.962784
v -0.031672 1.646253 -0.387199
v -0.284708 0.273737 -0.882543
v -0.060109 1.556473 -0.556726
v -0.220227 0.155530 -0.770216
v -0.078841 1.344015 -0.745624
v 0.039837 0.090193 -0.659512
v 0.007288 0.864130 -0.963076
v 0.151941 -0.000918 -0.234895
v 0.088076 0.561472 -0.999902
v 0.103055 0.400417 -0.981770
v 0.074787 0.231354 -0.894873
v 0.275887 1.399452 -0.655662
v 0.162212 1.184980 -0.815493
v 0.289637 0.848425 -0.926103
v 0.305008 0.091210 -0.585105
v 0.474295 0.553894 -0.887335
v 0.471359 0.391158 -0.862328
v 0.242922 1.646683 -0.300293
v 0.409355 0.224712 -0.794039
v 0.299812 1.552235 -0.473808
v 0.402391 1.182877 -0.732376
v 0.578388 0.986767 -0.718559
v 0.630098 0.775477 -0.755838
v 0.190630 1.696286 -0.072317
v 0.401660 0.034551 -0.240464
v 0.782221 0.546313 -0.628664
v 0.760328 0.395476 -0.626347
v 0.706407 0.273738 -0.600767
v 0.621121 0.153031 -0.500843
v 0.556337 1.356006 -0.488918
v 0.519697 1.550678 -0.218826
v 0.741433 1.182913 -0.385563
v 0.851280 0.838993 -0.471193
v 0.964262 0.561577 -0.284893
v 0.896390 0.312176 -0.330087
v 0.389486 1.645439 -0.040259
v 0.737529 0.145555 -0.261977
v 0.689550 1.409511 -0.137143
v 0.861280 1.069221 -0.240278
v 0.655745 0.088816 0.086533
v 0.981489 0.766524 -0.079319
v 0.980169 0.395471 -0.098370
v 0.880578 0.216745 -0.046256
v 0.997645 0.546312 0.108585
v 0.537350 1.556476 0.157524
v 0.891901 1.065496 0.079556
v 0.420602 0.031193 0.174180
v 0.658707 1.399457 0.268547
v 0.945529 0.668119 0.333456
v 0.182705 0.001723 0.217127
v 0.928708 0.312172 0.223547
v 0.793964 0.181352 0.256146
v 0.052201 1.699754 0.193863
v 0.869631 0.395479 0.462761
v 0.317856 1.645517 0.219021
v 0.821548 1.080312 0.332340
v 0.639899 1.182804 0.537415
v 0.808331 0.848975 0.530735
v 0.775173 0.553896 0.636171
v 0.727042 0.273736 0.575625
v 0.583629 0.182346 0.606117
v 0.503649 0.113099 0.509573
v 0.621346 0.400424 0.767086
v 0.279899 1.554281 0.489878
v 0.403114 1.374918 0.609417
v 0.253435 0.059028 0.499496
v 0.591877 0.986675 0.707459
v 0.618385 0.775514 0.765450
v 0.488892 0.553900 0.877299
v 0.069313 1.647598 0.384453
v 0.451418 0.273742 0.810032
v 0.155220 0.178928 0.823514
v 0.121420 0.111615 0.701162
v 0.227476 1.190811 0.800404
v 0.369972 0.855791 0.890926
v 0.254827 0.431994 0.962785
v -0.116282 0.031762 0.447993
v 0.106947 0.977356 0.920162
v 0.079313 0.766521 0.981490
v 0.107068 0.273737 0.921127
v 0.065858 1.391758 0.709103
v -0.161315 1.552389 0.544937
v -0.091375 1.182915 0.830639
v -0.066884 0.472357 1.000385
v -0.253305 0.977363 0.891049
v -0.302317 0.766533 0.937132
v -0.294065 0.391164 0.937719
v -0.253587 0.273737 0.891981
v -0.318500 0.157055 0.744892
v -0.205542 1.394729 0.677490
v -0.396619 1.199448 0.727280
v -0.467358 0.546204 0.889974
v -0.281147 1.647600 0.271229
v -0.514872 0.326054 0.810032
v -0.450590 1.394777 0.549076
v -0.590792 0.150101 0.536454
v -0.535233 0.855789 0.802601
v -0.686932 1.065479 0.574436
v -0.216804 -0.000142 0.177421
v -0.772009 0.766521 0.611218
v -0.776627 0.553868 0.637463
v -0.760330 0.395465 0.626341
v -0.706408 0.273740 0.600775
v -0.469098 1.552743 0.306305
v -0.656009 1.403610 0.262987
v -0.552218 0.088548 0.357183
v -0.815931 1.080290 0.346035
v -0.645276 0.087451 0.100095
v -0.936246 0.848032 0.251072
v -0.964261 0.561577 0.284897
v -0.942142 0.395474 0.287702
v -0.835234 0.217300 0.292572
vt 0.5869 0.4244
vt 0.5635 0.3458
vt 0.6258 0.3509
vt 0.5697 0.2285
vt 0.6261 0.2242
vt 0.2692 0.2391
vt 0.1983 0.2580
vt 0.1990 0.1875
vt 0.6170 0.1015
vt 0.5756 0.0526
vt 0.6412 0.0349
vt 0.8763 0.0259
vt 0.8485 0.0601
vt 0.8233 0.0019
vt 0.3436 0.1866
vt 0.3237 0.2337
vt 0.2864 0.1433
vt 0.5409 0.4830
vt 0.5295 0.4221
vt 0.5312 0.1550
vt 0.8267 0.1295
vt 0.7945 0.0518
vt 0.4893 0.0684
vt 0.5680 0.0008
vt 0.5320 0.0280
vt 0.4921 0.0008
vt 0.5112 0.3061
vt 0.4596 0.4258
vt 0.4576 0.3069
vt 0.3364 0.3287
vt 0.2581 0.3263
vt 0.4485 0.1976
vt 0.4578 0.0307
vt 0.7673 0.0119
vt 0.4849 0.4845
vt 0.4860 0.1219
vt 0.4218 0.1018
vt 0.4097 0.3074
vt 0.3801 0.2284
vt 0.7846 0.1210
vt 0.7450 0.0987
vt 0.4047 0.0366
vt 0.7164 0.0712
vt 0.3175 0.4399
vt 0.2942 0.4172
vt 0.4456 0.4896
vt 0.4073 0.4114
vt 0.2321 0.4239
vt 0.1739 0.3230
vt 0.3768 0.0948
vt 0.7099 0.6209
vt 0.7301 0.7912
vt 0.6973 0.7999
vt 0.7604 0.8936
vt 0.7075 0.9424
vt 0.7807 0.9828
vt 0.7181 0.9935
vt 0.7222 0.5341
vt 0.7789 0.5819
vt 0.7547 0.6674
vt 0.7874 0.7821
vt 0.8421 0.8715
vt 0.7740 0.9444
vt 0.8528 0.9230
vt 0.7337 0.1773
vt 0.8540 0.9633
vt 0.6955 0.1710
vt 0.1646 0.5093
vt 0.1765 0.4429
vt 0.8071 0.6524
vt 0.8531 0.7162
vt 0.7829 0.1899
vt 0.8709 0.7865
vt 0.9225 0.8430
vt 0.9275 0.8965
vt 0.9269 0.9378
vt 0.1049 0.5028
vt 0.1108 0.4631
vt 0.7907 0.5162
vt 0.8498 0.5753
vt 0.1226 0.3667
vt 0.9329 0.7415
vt 0.7214 0.2590
vt 0.9871 0.8135
vt 0.9779 0.8999
vt 0.7674 0.2461
vt 0.0406 0.4468
vt 0.0663 0.4204
vt 0.8477 0.4943
vt 0.8972 0.5358
vt 0.9011 0.6168
vt 0.9445 0.6462
vt 0.0462 0.3177
vt 0.9849 0.7365
vt 0.3135 0.6516
vt 0.2805 0.5960
vt 0.3135 0.5713
vt 0.0174 0.3828
vt 0.2771 0.7239
vt 0.2437 0.6498
vt 0.2521 0.5354
vt 0.7883 0.3127
vt 0.2847 0.8257
vt 0.2468 0.9444
vt 0.2376 0.8268
vt 0.0811 0.2652
vt 0.1948 0.6878
vt 0.1233 0.2214
vt 0.2136 0.5689
vt 0.1960 0.5213
vt 0.1883 0.9997
vt 0.1800 0.9435
vt 0.8376 0.1882
vt 0.1650 0.5946
vt 0.8210 0.2652
vt 0.1830 0.8320
vt 0.1283 0.8701
vt 0.1447 0.7513
vt 0.1233 0.6494
vt 0.1299 0.5527
vt 0.1106 0.5216
vt 0.0028 0.2970
vt 0.0341 0.1940
vt 0.0839 0.5952
vt 0.8733 0.2920
vt 0.1200 0.9998
vt 0.0946 0.9278
vt 0.0811 0.1628
vt 0.0914 0.7961
vt 0.0836 0.7232
vt 0.0500 0.6505
vt 0.8734 0.2229
vt 0.0587 0.5538
vt 0.0523 0.5227
vt 0.0668 0.0696
vt 0.0846 0.0944
vt 0.0354 0.7555
vt 0.0120 0.6116
vt 0.1528 0.1273
vt 0.3720 0.7386
vt 0.4179 0.7038
vt 0.4171 0.7783
vt 0.3963 0.8880
vt 0.3649 0.8429
vt 0.0125 0.5554
vt 0.8962 0.3313
vt 0.9283 0.2929
vt 0.4071 0.6241
vt 0.9249 0.1910
vt 0.4470 0.5520
vt 0.4639 0.6314
vt 0.4392 0.8791
vt 0.4879 0.7098
vt 0.4926 0.7841
vt 0.4879 0.9502
vt 0.4179 0.9442
vt 0.4460 0.9751
vt 0.5076 0.9785
vt 0.5062 0.4954
vt 0.5003 0.5564
vt 0.5310 0.6338
vt 0.5279 0.8581
vt 0.8866 0.1245
vt 0.5493 0.9329
vt 0.4909 0.9107
vt 0.5587 0.5564
vt 0.5495 0.7532
vt 0.6003 0.6762
vt 0.2328 0.0410
vt 0.2439 0.0910
vt 0.6125 0.7814
vt 0.6106 0.8549
vt 0.6087 0.9083
vt 0.9143 0.0835
vt 0.6012 0.9484
vt 0.5809 0.9777
vt 0.5856 0.4933
vt 0.6128 0.5520
vt 0.6483 0.6648
vt 0.6787 0.7455
vt 0.6646 0.8487
vt 0.6762 0.8994
vt 0.6544 0.9424
vt 0.6816 0.9370
vt 0.3015 0.0685
vt 0.6741 0.3194
vt 0.6382 0.4313
vt 0.6683 0.2315
vt 0.6783 0.1330
vt 0.6768 0.0797
vt 0.3375 0.1038
vt 0.5939 0.4865
vt 0.3649 0.1779
vt 0.3588 0.3527
vt 0.2497 0.4904
vt 0.7177 0.3190
vt 0.0101 0.1812
vt 0.0523 0.8715
vt 0.0245 0.0863
vt 0.0649 0.0373
vt 0.4131 0.5462
vt 0.4544 0.4911
vt 0.1596 0.0261
vt 0.2483 0.0082
vt 0.6210 0.4911
vn -0.7949 0.6027 -0.0701
vn -0.8582 0.4496 -0.2477
vn -0.8916 0.4480 0.0663
vn -0.9303 0.2494 -0.2690
vn -0.9742 0.2256 -0.0096
vn -0.2096 -0.9739 -0.0867
vn -0.0399 -0.9986 -0.0353
vn -0.1099 -0.9905 0.0826
vn -0.9879 -0.1339 -0.0785
vn -0.8837 -0.3906 -0.2578
vn -0.8242 -0.5618 0.0713
vn -0.6062 0.7932 0.0582
vn -0.3721 0.9282 0.0011
vn -0.5648 0.7919 -0.2321
vn -0.6156 -0.7800 -0.1126
vn -0.3966 -0.8987 -0.1872
vn -0.3696 -0.9276 0.0544
vn -0.6908 0.6062 -0.3942
vn -0.8857 0.0637 -0.4598
vn -0.1163 0.9930 0.0184
vn -0.2806 0.9265 -0.2509
vn -0.7483 -0.2913 -0.5960
vn -0.7169 -0.5737 -0.3962
vn -0.3766 -0.8351 -0.4010
vn -0.7613 0.3861 -0.5210
vn -0.4458 0.5993 -0.6649
vn -0.5834 0.3961 -0.7090
vn -0.1171 -0.9697 -0.2145
vn -0.6171 0.1854 -0.7648
vn -0.5241 -0.5521 -0.6484
vn -0.3817 0.7920 -0.4764
vn -0.7579 -0.0107 -0.6523
vn -0.4954 -0.1431 -0.8568
vn -0.3399 0.3836 -0.8587
vn -0.2595 0.2121 -0.9422
vn -0.0413 0.9843 -0.1719
vn -0.0300 0.9238 -0.3816
vn -0.2606 -0.5668 -0.7816
vn -0.0641 0.7897 -0.6101
vn -0.1587 -0.8408 -0.5176
vn -0.0898 0.5566 -0.8259
vn 0.0301 -0.9268 -0.3745
vn 0.0680 -0.9914 -0.1122
vn -0.2280 -0.1939 -0.9542
vn -0.0041 0.2610 -0.9653
vn 0.0834 0.0049 -0.9965
vn 0.0659 -0.6667 -0.7424
vn 0.2928 0.6168 -0.7306
vn 0.1601 0.4463 -0.8804
vn 0.2992 0.2384 -0.9239
vn 0.4671 -0.0190 -0.8840
vn 0.1111 -0.2881 -0.9511
vn 0.4572 -0.3034 -0.8360
vn 0.2340 0.9269 -0.2934
vn 0.3249 -0.6806 -0.6567
vn 0.3246 0.7933 -0.5151
vn 0.1716 -0.9257 -0.3372
vn 0.4334 0.4450 -0.7836
vn 0.6004 0.3502 -0.7189
vn 0.1601 0.9855 -0.0569
vn 0.6304 0.1795 -0.7552
vn 0.7850 -0.0260 -0.6190
vn 0.7448 -0.2619 -0.6137
vn 0.6141 -0.5820 -0.5331
vn 0.4247 -0.8408 -0.3358
vn 0.6201 0.5716 -0.5374
vn 0.2105 -0.9706 -0.1170
vn 0.8484 0.2337 -0.4749
vn 0.5640 0.7876 -0.2481
vn 0.9537 -0.0157 -0.3005
vn 0.8226 -0.4637 -0.3292
vn 0.3846 0.9222 -0.0397
vn 0.4939 -0.8500 -0.1829
vn 0.7755 0.6166 -0.1356
vn 0.7689 0.4516 -0.4526
vn 0.8947 0.3810 -0.2331
vn 0.3709 -0.9276 0.0450
vn 0.9810 0.1798 -0.0731
vn 0.9583 -0.2730 -0.0849
vn 0.7102 -0.7031 -0.0350
vn 0.9931 -0.0360 0.1112
vn 0.5866 0.7898 0.1792
vn 0.9193 0.3848 0.0827
vn 0.2041 -0.9755 0.0818
vn 0.9420 0.0918 0.3229
vn 0.0776 -0.9926 0.0929
vn 0.8682 -0.4475 0.2143
vn 0.5753 -0.7908 0.2090
vn 0.7296 0.6126 0.3040
vn 0.0461 0.9855 0.1632
vn 0.8520 -0.2761 0.4449
vn 0.3114 0.9244 0.2201
vn 0.8541 0.3900 0.3442
vn 0.6823 0.4650 0.5641
vn 0.8113 0.2413 0.5324
vn 0.7734 -0.0274 0.6333
vn 0.6595 -0.5571 0.5047
vn 0.4264 -0.7792 0.4594
vn 0.2898 -0.9120 0.2902
vn 0.6092 -0.2677 0.7465
vn 0.3118 0.7886 0.5299
vn 0.4578 0.5874 0.6673
vn 0.1297 -0.9577 0.2568
vn 0.5851 0.3576 0.7279
vn 0.6220 0.1730 0.7637
vn 0.4758 -0.0277 0.8791
vn 0.0579 0.9166 0.3955
vn 0.3877 -0.5687 0.7255
vn 0.1202 -0.7898 0.6014
vn 0.0638 -0.9154 0.3975
vn 0.3678 0.2460 0.8968
vn 0.2566 -0.1992 0.9458
vn -0.0661 -0.9701 0.2335
vn 0.0944 0.3374 0.9366
vn 0.0734 0.1611 0.9842
vn 0.0719 -0.5492 0.8326
vn 0.0812 0.6196 0.7807
vn 0.2631 0.4546 0.8509
vn -0.1677 0.7951 0.5829
vn -0.0963 0.4529 0.8864
vn -0.0688 -0.1446 0.9871
vn -0.2454 0.3342 0.9100
vn -0.2805 0.1624 0.9460
vn -0.1865 -0.5888 0.7864
vn -0.2228 -0.8306 0.5103
vn -0.2331 0.5938 0.7701
vn -0.4275 0.4567 0.7802
vn -0.4796 -0.0320 0.8769
vn -0.2690 0.9255 0.2668
vn -0.4996 -0.4437 0.7440
vn -0.2779 -0.2507 0.9273
vn -0.5155 0.6112 0.6006
vn -0.5474 0.2415 0.8013
vn -0.7020 0.3936 0.5935
vn -0.3903 -0.8368 0.3840
vn -0.2947 -0.9368 0.1887
vn -0.7799 0.1774 0.6003
vn -0.7718 -0.0168 0.6357
vn -0.7532 -0.2705 0.5996
vn -0.5045 0.7934 0.3406
vn -0.6273 -0.5786 0.5213
vn -0.7371 0.6050 0.3011
vn -0.8441 0.3956 0.3618
vn -0.9352 0.2327 0.2670
vn -0.9570 0.0003 0.2900
vn -0.9096 -0.2862 0.3012
vn -0.6692 -0.6992 0.2515
usemtl Material.001
s 1
f 1/1/1 2/2/2 3/3/3
f 3/3/3 5/4/4 6/5/5
f 4/6/6 7/7/7 134/8/8
f 8/9/9 10/10/10 12/11/11
f 13/12/12 11/13/13 14/14/14
f 15/15/15 16/16/16 143/17/17
f 14/18/14 17/19/18 1/1/1
f 5/4/4 18/20/19 8/9/9
f 11/13/13 9/21/20 19/22/21
f 18/20/19 23/23/22 10/10/10
f 15/24/15 20/25/23 24/26/24
f 17/19/18 25/27/25 2/2/2
f 2/2/2 25/27/25 5/4/4
f 25/27/25 26/28/26 27/29/27
f 4/6/6 24/30/24 28/31/28
f 25/27/25 29/32/29 18/20/19
f 23/23/22 30/33/30 20/25/23
f 19/22/21 31/34/31 14/14/14
f 17/19/18 31/35/31 26/28/26
f 21/36/32 32/37/33 23/23/22
f 29/32/29 32/37/33 21/36/32
f 27/29/27 26/28/26 33/38/34
f 29/32/29 33/38/34 34/39/35
f 22/40/36 36/41/37 19/22/21
f 32/37/33 37/42/38 30/33/30
f 19/22/21 38/43/39 31/34/31
f 24/30/24 37/44/38 39/45/40
f 38/46/39 40/47/41 26/28/26
f 26/28/26 40/47/41 33/38/34
f 28/31/28 39/45/40 41/48/42
f 7/7/7 28/31/28 43/49/43
f 34/39/35 35/50/44 32/37/33
f 40/51/41 42/52/45 34/53/35
f 28/31/28 41/48/42 43/49/43
f 34/53/35 44/54/46 35/55/44
f 35/55/44 46/56/47 37/57/38
f 38/58/39 47/59/48 40/51/41
f 42/52/45 48/60/49 49/61/50
f 49/61/50 51/62/51 44/54/46
f 45/63/52 51/62/51 52/64/53
f 22/40/36 53/65/54 36/41/37
f 45/63/52 54/66/55 46/56/47
f 36/41/37 55/67/56 38/43/39
f 41/48/42 54/68/55 50/69/57
f 48/60/49 47/59/48 56/70/58
f 56/70/58 57/71/59 49/61/50
f 22/40/36 9/21/20 59/72/60
f 51/62/51 58/73/61 61/74/62
f 51/62/51 62/75/63 52/64/53
f 52/64/53 63/76/64 54/66/55
f 54/68/55 63/77/64 64/78/65
f 55/79/56 65/80/66 47/59/48
f 54/68/55 64/78/65 50/69/57
f 47/59/48 65/80/66 56/70/58
f 50/69/57 64/78/65 60/81/67
f 65/80/66 68/82/68 57/71/59
f 53/65/54 66/83/69 55/67/56
f 68/82/68 69/84/70 61/74/62
f 61/74/62 70/85/71 62/75/63
f 59/72/60 71/86/72 53/65/54
f 62/75/63 70/85/71 63/76/64
f 64/78/65 70/87/71 72/88/73
f 66/89/69 73/90/74 65/80/66
f 67/91/75 74/92/76 68/82/68
f 73/90/74 74/92/76 67/91/75
f 72/88/73 75/93/77 60/81/67
f 68/82/68 74/92/76 76/94/78
f 69/95/70 77/96/79 70/97/71
f 72/88/73 70/87/71 78/98/80
f 69/95/70 76/99/78 79/100/81
f 77/96/79 78/101/80 70/97/71
f 71/86/72 80/102/82 66/83/69
f 72/88/73 78/98/80 75/93/77
f 74/103/76 73/104/74 81/105/83
f 60/81/67 75/93/77 82/106/84
f 76/99/78 81/105/83 84/107/85
f 43/49/43 82/106/84 85/108/86
f 7/7/7 43/49/43 85/108/86
f 79/100/81 86/109/87 77/96/79
f 77/96/79 86/109/87 78/101/80
f 78/101/80 86/109/87 87/110/88
f 73/104/74 80/111/82 83/112/89
f 59/72/60 9/21/20 88/113/90
f 79/100/81 89/114/91 86/109/87
f 59/72/60 90/115/92 71/86/72
f 83/112/89 91/116/93 81/105/83
f 91/116/93 83/112/89 92/117/94
f 84/107/85 93/118/95 94/119/96
f 89/114/91 95/120/97 86/109/87
f 87/110/88 95/120/97 96/121/98
f 87/122/88 97/123/99 75/93/77
f 94/119/96 98/124/100 89/114/91
f 90/115/92 99/125/101 80/102/82
f 83/112/89 99/126/101 100/127/102
f 82/106/84 97/123/99 101/128/103
f 92/117/94 102/129/104 93/118/95
f 103/130/105 104/131/106 94/119/96
f 88/113/90 105/132/107 90/115/92
f 98/124/100 106/133/108 95/120/97
f 96/121/98 106/133/108 107/134/109
f 97/123/99 107/135/109 108/136/110
f 100/127/102 110/137/111 102/129/104
f 98/124/100 104/131/106 111/138/112
f 101/128/103 112/139/113 85/108/86
f 110/140/111 113/141/114 114/142/115
f 110/140/111 111/143/112 104/144/106
f 111/138/112 115/145/116 106/133/108
f 100/146/102 99/125/101 116/147/117
f 109/148/118 113/141/114 110/140/111
f 105/132/107 117/149/119 99/125/101
f 109/148/118 116/150/117 118/151/120
f 101/128/103 108/136/110 112/139/113
f 112/139/113 134/8/8 85/108/86
f 114/142/115 119/152/121 111/143/112
f 7/7/7 85/108/86 134/8/8
f 114/142/115 120/153/122 121/154/123
f 119/152/121 123/155/124 115/156/116
f 107/157/109 123/155/124 124/158/125
f 116/150/117 117/159/119 125/160/126
f 118/151/120 120/153/122 113/141/114
f 125/160/126 126/161/127 118/151/120
f 121/154/123 127/162/128 119/152/121
f 88/113/90 128/163/129 105/132/107
f 127/162/128 129/164/130 122/165/131
f 122/165/131 129/164/130 123/155/124
f 117/159/119 130/166/132 125/160/126
f 126/161/127 132/167/133 120/153/122
f 126/161/127 130/166/132 133/168/134
f 131/169/135 141/170/136 112/139/113
f 126/161/127 133/168/134 132/167/133
f 112/139/113 141/170/136 134/8/8
f 132/167/133 133/168/134 135/171/137
f 132/167/133 136/172/138 127/162/128
f 127/162/128 137/173/139 129/164/130
f 128/163/129 139/174/140 117/149/119
f 124/158/125 138/175/141 131/176/135
f 130/166/132 139/177/140 140/178/142
f 140/178/142 142/179/143 133/168/134
f 135/171/137 142/179/143 144/180/144
f 135/171/137 145/181/145 136/172/138
f 136/172/138 146/182/146 137/173/139
f 137/173/139 147/183/147 138/175/141
f 9/21/20 11/13/13 128/163/129
f 146/182/146 12/184/11 147/183/147
f 128/163/129 13/12/12 139/174/140
f 147/185/147 143/17/17 141/170/136
f 142/186/143 140/187/142 3/3/3
f 144/188/144 3/3/3 6/5/5
f 143/17/17 4/6/6 134/8/8
f 145/189/145 6/5/5 8/9/9
f 145/189/145 8/9/9 146/190/146
f 12/191/11 15/15/15 147/185/147
f 140/187/142 13/192/12 1/1/1
f 143/17/17 16/16/16 4/6/6
f 3/3/3 2/2/2 5/4/4
f 6/5/5 5/4/4 8/9/9
f 15/15/15 12/191/11 10/193/10
f 13/192/12 14/18/14 1/1/1
f 10/10/10 20/25/23 15/24/15
f 1/1/1 17/19/18 2/2/2
f 8/9/9 18/20/19 10/10/10
f 11/13/13 19/22/21 14/14/14
f 18/20/19 21/36/32 23/23/22
f 9/21/20 22/40/36 19/22/21
f 10/10/10 23/23/22 20/25/23
f 15/15/15 24/30/24 16/16/16
f 5/4/4 25/27/25 18/20/19
f 25/27/25 17/19/18 26/28/26
f 4/6/6 16/16/16 24/30/24
f 25/27/25 27/29/27 29/32/29
f 18/20/19 29/32/29 21/36/32
f 24/26/24 20/25/23 30/33/30
f 17/19/18 14/18/14 31/35/31
f 23/23/22 32/37/33 30/33/30
f 4/6/6 28/31/28 7/7/7
f 24/30/24 39/45/40 28/31/28
f 29/32/29 27/29/27 33/38/34
f 29/32/29 34/39/35 32/37/33
f 32/37/33 35/50/44 37/42/38
f 19/22/21 36/41/37 38/43/39
f 24/30/24 30/194/30 37/44/38
f 31/35/31 38/46/39 26/28/26
f 33/38/34 40/47/41 34/39/35
f 34/53/35 42/52/45 44/54/46
f 35/55/44 44/54/46 45/63/52
f 35/55/44 45/63/52 46/56/47
f 39/45/40 37/44/38 46/195/47
f 39/45/40 46/195/47 41/48/42
f 40/51/41 47/59/48 48/60/49
f 42/52/45 40/51/41 48/60/49
f 42/52/45 49/61/50 44/54/46
f 48/60/49 56/70/58 49/61/50
f 43/49/43 41/48/42 50/69/57
f 45/63/52 44/54/46 51/62/51
f 45/63/52 52/64/53 54/66/55
f 36/41/37 53/65/54 55/67/56
f 47/59/48 38/58/39 55/79/56
f 41/48/42 46/195/47 54/68/55
f 49/61/50 57/71/59 58/73/61
f 49/61/50 58/73/61 51/62/51
f 22/40/36 59/72/60 53/65/54
f 43/49/43 50/69/57 60/81/67
f 51/62/51 61/74/62 62/75/63
f 52/64/53 62/75/63 63/76/64
f 56/70/58 65/80/66 57/71/59
f 65/80/66 55/79/56 66/89/69
f 65/80/66 67/91/75 68/82/68
f 58/73/61 57/71/59 68/82/68
f 58/73/61 68/82/68 61/74/62
f 61/74/62 69/84/70 70/85/71
f 66/83/69 53/65/54 71/86/72
f 64/78/65 63/77/64 70/87/71
f 65/80/66 73/90/74 67/91/75
f 60/81/67 64/78/65 72/88/73
f 68/82/68 76/94/78 69/84/70
f 69/95/70 79/100/81 77/96/79
f 66/83/69 80/102/82 73/196/74
f 76/99/78 74/103/76 81/105/83
f 43/49/43 60/81/67 82/106/84
f 78/98/80 87/122/88 75/93/77
f 81/105/83 73/104/74 83/112/89
f 76/99/78 84/107/85 79/100/81
f 79/100/81 84/107/85 89/114/91
f 59/72/60 88/113/90 90/115/92
f 71/86/72 90/115/92 80/102/82
f 84/107/85 81/105/83 91/116/93
f 75/93/77 97/123/99 82/106/84
f 91/116/93 92/117/94 93/118/95
f 84/107/85 91/116/93 93/118/95
f 84/107/85 94/119/96 89/114/91
f 87/110/88 86/109/87 95/120/97
f 87/122/88 96/197/98 97/123/99
f 89/114/91 98/124/100 95/120/97
f 83/112/89 80/111/82 99/126/101
f 92/117/94 83/112/89 100/127/102
f 82/106/84 101/128/103 85/108/86
f 93/118/95 102/129/104 103/130/105
f 93/118/95 103/130/105 94/119/96
f 92/117/94 100/127/102 102/129/104
f 98/124/100 94/119/96 104/131/106
f 90/115/92 105/132/107 99/125/101
f 96/121/98 95/120/97 106/133/108
f 98/124/100 111/138/112 106/133/108
f 97/123/99 96/197/98 107/135/109
f 97/123/99 108/136/110 101/128/103
f 100/127/102 109/198/118 110/137/111
f 103/130/105 102/129/104 110/137/111
f 103/130/105 110/137/111 104/131/106
f 110/140/111 114/142/115 111/143/112
f 107/135/109 106/199/108 115/200/116
f 109/148/118 100/201/102 116/150/117
f 116/150/117 99/202/101 117/159/119
f 109/148/118 118/151/120 113/141/114
f 111/143/112 119/152/121 115/156/116
f 114/142/115 113/141/114 120/153/122
f 114/142/115 121/154/123 119/152/121
f 119/152/121 122/165/131 123/155/124
f 107/157/109 115/156/116 123/155/124
f 108/136/110 107/135/109 124/203/125
f 116/150/117 125/160/126 118/151/120
f 108/136/110 124/203/125 112/139/113
f 118/151/120 126/161/127 120/153/122
f 122/165/131 119/152/121 127/162/128
f 105/132/107 128/163/129 117/149/119
f 121/154/123 132/167/133 127/162/128
f 124/158/125 123/155/124 129/164/130
f 126/161/127 125/160/126 130/166/132
f 124/203/125 131/169/135 112/139/113
f 121/154/123 120/153/122 132/167/133
f 117/159/119 139/177/140 130/166/132
f 132/167/133 135/171/137 136/172/138
f 127/162/128 136/172/138 137/173/139
f 88/113/90 9/21/20 128/163/129
f 129/164/130 137/173/139 138/175/141
f 124/158/125 129/164/130 138/175/141
f 130/166/132 140/178/142 133/168/134
f 131/169/135 147/185/147 141/170/136
f 141/170/136 143/17/17 134/8/8
f 135/171/137 133/168/134 142/179/143
f 135/171/137 144/180/144 145/181/145
f 136/172/138 145/181/145 146/182/146
f 137/173/139 146/182/146 147/183/147
f 131/169/135 138/204/141 147/185/147
f 128/163/129 11/13/13 13/12/12
f 139/205/140 13/192/12 140/187/142
f 142/186/143 3/3/3 144/188/144
f 145/189/145 144/188/144 6/5/5
f 146/190/146 8/9/9 12/11/11
f 147/185/147 15/15/15 143/17/17
f 3/3/3 140/187/142 1/1/1
