# Blender v2.77 (sub 0) OBJ File: ''
# www.blender.org
mtllib stromkasten.mtl
o Cube.004_Cube.007
v -1.689863 2.487729 0.979251
v -1.689863 2.487729 -0.942959
v -1.689863 0.008411 -0.942959
v -1.689863 0.008411 0.979251
v -0.127959 2.487729 -0.942959
v 1.433945 2.487729 -0.942959
v 1.433945 0.008411 -0.942959
v -0.127959 0.008411 -0.942959
v 1.433945 2.487729 0.979251
v 1.433945 0.008411 0.979251
v -0.127959 0.008411 0.979251
v -0.127959 2.487729 0.979251
v -0.213757 2.412266 0.979251
v -0.213757 0.083873 0.979251
v 1.467893 2.512220 1.000142
v -0.127959 2.512220 1.000142
v 1.467893 2.630857 1.000142
v -0.127959 2.630857 1.000142
v 1.467893 2.512221 -0.963849
v -1.723812 2.512221 -0.963849
v -0.127959 2.512221 -0.963849
v -1.723812 2.512220 1.000142
v 1.428671 2.677368 0.976007
v -0.127959 2.677368 0.976007
v 1.467893 2.630858 -0.963849
v -1.723812 2.630858 -0.963849
v -0.127959 2.630858 -0.963849
v -1.723812 2.630857 1.000142
v -0.127959 2.677369 -0.939714
v -1.684590 2.677369 -0.939714
v -1.684590 2.677368 0.976007
v 1.428671 2.677369 -0.939714
v -0.053229 0.080686 0.979251
v -0.053229 2.415453 0.979251
v -0.213757 2.412266 0.915061
v -0.213757 0.083873 0.915061
v -1.604066 0.083873 0.979251
v -1.604066 2.412266 0.979251
v -1.604066 2.412266 0.915061
v -1.604066 0.083873 0.915061
v -0.053229 0.080686 0.914137
v -0.053229 2.415453 0.914137
v 1.359214 2.415453 0.979251
v 1.359214 0.080686 0.979251
v 1.359214 2.415453 0.914137
v 1.359214 0.080686 0.914137
vt 0.7062 0.6931
vt 0.9968 0.3901
vt 0.9968 0.6931
vt 0.4053 0.0145
vt 0.2048 0.2282
vt 0.2048 0.0145
vt 0.0032 0.7274
vt 0.2938 0.4244
vt 0.2938 0.7274
vt 0.4340 0.1950
vt 0.7416 0.1846
vt 0.7513 0.1950
vt 0.4053 0.4244
vt 0.2048 0.4244
vt 0.4340 0.3859
vt 0.4311 0.1950
vt 0.4311 0.3901
vt 0.4159 0.1950
vt 0.2970 0.7304
vt 0.0000 0.7304
vt 0.0044 0.0145
vt 0.2048 0.0102
vt 0.7030 0.6961
vt 0.4097 0.3853
vt 0.4097 0.1950
vt 0.0000 0.7449
vt 0.0000 0.0102
vt 0.2048 0.0000
vt 1.0000 0.6961
vt 0.7030 0.7106
vt 0.6994 0.5851
vt 0.4097 0.7754
vt 0.4097 0.5851
vt 0.2970 0.7449
vt 0.0037 0.7506
vt 0.7030 0.5851
vt 0.6994 0.7754
vt 0.9963 0.7163
vt 0.7067 0.7163
vt 0.6994 0.3949
vt 0.7030 0.3901
vt 0.4097 0.3949
vt 0.4097 0.0000
vt 0.4097 0.0102
vt 0.4097 0.0048
vt 0.4159 0.0000
vt 0.4311 0.0000
vt 0.4340 0.0041
vt 0.0044 0.2282
vt 0.0044 0.4244
vt 0.4432 0.2042
vt 0.3167 0.4244
vt 0.3264 0.7090
vt 0.3167 0.7090
vt 0.7513 0.0041
vt 0.7416 0.0146
vt 0.4436 0.1846
vt 0.4436 0.0146
vt 0.8815 0.7163
vt 0.7030 1.0000
vt 0.7030 0.7163
vt 0.3459 0.4244
vt 0.3557 0.5943
vt 0.3459 0.5943
vt 0.3695 0.5943
vt 0.3626 0.4244
vt 0.3695 0.4244
vt 0.3264 0.4244
vt 0.3361 0.7090
vt 0.3264 0.7090
vt 0.3068 0.4244
vt 0.3167 0.7097
vt 0.3068 0.7097
vt 0.4432 0.3768
vt 0.7420 0.3768
vt 0.7420 0.2042
vt 0.7513 0.3859
vt 0.9326 0.0000
vt 0.7513 0.2845
vt 0.7513 0.0000
vt 0.3626 0.5970
vt 0.3557 0.4244
vt 0.3626 0.4244
vt 0.3459 0.5970
vt 0.3361 0.4244
vt 0.3459 0.4244
vt 0.2970 0.4244
vt 0.3068 0.7097
vt 0.2970 0.7097
vt 0.7062 0.3901
vt 0.4053 0.2282
vt 0.0032 0.4244
vt 0.4159 0.3901
vt 0.0000 0.0000
vt 1.0000 0.7106
vt 0.2933 0.7506
vt 0.7030 0.7801
vt 0.3264 0.4244
vt 0.8815 1.0000
vt 0.3557 0.4244
vt 0.3626 0.5943
vt 0.3361 0.4244
vt 0.3167 0.4244
vt 0.9326 0.2845
vt 0.3557 0.5970
vt 0.3361 0.5970
vt 0.3068 0.4244
vn -1.0000 -0.0000 0.0000
vn 0.0000 0.0000 -1.0000
vn 1.0000 0.0000 0.0000
vn 0.0000 -0.0000 1.0000
vn 0.0000 -1.0000 -0.0000
vn 0.0000 -0.6490 0.7608
vn 0.5851 -0.8110 -0.0000
vn 0.0000 -0.6489 -0.7608
vn -0.5851 -0.8110 -0.0000
vn 0.0000 0.4606 0.8876
vn 0.0000 1.0000 0.0000
vn 0.7645 0.6447 0.0000
vn 0.0000 0.4606 -0.8876
vn -0.7645 0.6447 0.0000
usemtl None.006
s 1
f 2/1/1 4/2/1 1/3/1
f 6/4/2 8/5/2 5/6/2
f 9/7/3 7/8/3 6/9/3
f 12/10/4 14/11/4 11/12/4
f 8/5/5 10/13/5 11/14/5
f 9/15/6 16/16/6 12/10/6
f 15/17/4 18/18/4 16/16/4
f 9/7/7 19/19/7 15/20/7
f 2/21/8 21/22/8 5/6/8
f 1/3/9 20/23/9 2/1/9
f 18/18/10 23/24/10 24/25/10
f 19/19/3 17/26/3 15/20/3
f 20/27/2 27/28/2 21/22/2
f 22/29/1 26/30/1 20/23/1
f 29/31/11 31/32/11 24/33/11
f 25/34/12 23/35/12 17/26/12
f 27/36/13 30/37/13 29/31/13
f 26/30/14 31/38/14 30/39/14
f 27/36/13 32/40/13 25/41/13
f 32/40/11 24/33/11 23/42/11
f 21/22/2 25/43/2 19/44/2
f 18/18/10 31/45/10 28/46/10
f 6/4/8 21/22/8 19/44/8
f 16/16/4 28/46/4 22/47/4
f 1/48/6 16/16/6 22/47/6
f 3/49/5 11/14/5 4/50/5
f 11/12/4 34/51/4 12/10/4
f 5/6/2 3/49/2 2/21/2
f 13/52/1 36/53/1 14/54/1
f 4/55/4 14/11/4 37/56/4
f 1/48/4 13/57/4 12/10/4
f 4/55/4 38/58/4 1/48/4
f 39/59/4 36/60/4 35/61/4
f 14/62/11 40/63/11 37/64/11
f 38/65/5 35/66/5 13/67/5
f 37/68/3 39/69/3 38/70/3
f 33/71/3 42/72/3 34/73/3
f 12/10/4 43/74/4 9/15/4
f 11/12/4 44/75/4 33/76/4
f 9/15/4 44/75/4 10/77/4
f 42/78/4 46/79/4 45/80/4
f 34/81/5 45/82/5 43/83/5
f 44/84/11 41/85/11 33/86/11
f 43/87/1 46/88/1 44/89/1
f 2/1/1 3/90/1 4/2/1
f 6/4/2 7/91/2 8/5/2
f 9/7/3 10/92/3 7/8/3
f 12/10/4 13/57/4 14/11/4
f 8/5/5 7/91/5 10/13/5
f 9/15/6 15/17/6 16/16/6
f 15/17/4 17/93/4 18/18/4
f 9/7/7 6/9/7 19/19/7
f 2/21/8 20/27/8 21/22/8
f 1/3/9 22/29/9 20/23/9
f 18/18/10 17/93/10 23/24/10
f 19/19/3 25/34/3 17/26/3
f 20/27/2 26/94/2 27/28/2
f 22/29/1 28/95/1 26/30/1
f 29/31/11 30/37/11 31/32/11
f 25/34/12 32/96/12 23/35/12
f 27/36/13 26/97/13 30/37/13
f 26/30/14 28/95/14 31/38/14
f 27/36/13 29/31/13 32/40/13
f 32/40/11 29/31/11 24/33/11
f 21/22/2 27/28/2 25/43/2
f 18/18/10 24/25/10 31/45/10
f 6/4/8 5/6/8 21/22/8
f 16/16/4 18/18/4 28/46/4
f 1/48/6 12/10/6 16/16/6
f 3/49/5 8/5/5 11/14/5
f 11/12/4 33/76/4 34/51/4
f 5/6/2 8/5/2 3/49/2
f 13/52/1 35/98/1 36/53/1
f 4/55/4 11/12/4 14/11/4
f 1/48/4 38/58/4 13/57/4
f 4/55/4 37/56/4 38/58/4
f 39/59/4 40/99/4 36/60/4
f 14/62/11 36/100/11 40/63/11
f 38/65/5 39/101/5 35/66/5
f 37/68/3 40/102/3 39/69/3
f 33/71/3 41/103/3 42/72/3
f 12/10/4 34/51/4 43/74/4
f 11/12/4 10/77/4 44/75/4
f 9/15/4 43/74/4 44/75/4
f 42/78/4 41/104/4 46/79/4
f 34/81/5 42/105/5 45/82/5
f 44/84/11 46/106/11 41/85/11
f 43/87/1 45/107/1 46/88/1
